<?xml version="1.0" encoding="UTF-8" standalone="no"?>
<svg
   width="64"
   height="64"
   viewBox="0 0 128 128"
   version="1.1"
   id="svg2"
   sodipodi:docname="green_circle.svg"
   inkscape:version="1.4.3 (0d15f75, 2025-12-25)"
   xmlns:inkscape="http://www.inkscape.org/namespaces/inkscape"
   xmlns:sodipodi="http://sodipodi.sourceforge.net/DTD/sodipodi-0.dtd"
   xmlns="http://www.w3.org/2000/svg"
   xmlns:svg="http://www.w3.org/2000/svg">
  <defs
     id="defs2" />
  <sodipodi:namedview
     id="namedview2"
     pagecolor="#ffffff"
     bordercolor="#000000"
     borderopacity="0.25"
     inkscape:showpageshadow="2"
     inkscape:pageopacity="0.0"
     inkscape:pagecheckerboard="0"
     inkscape:deskcolor="#d1d1d1"
     inkscape:zoom="12.609375"
     inkscape:cx="32"
     inkscape:cy="32"
     inkscape:window-width="1920"
     inkscape:window-height="1009"
     inkscape:window-x="1912"
     inkscape:window-y="-8"
     inkscape:window-maximized="1"
     inkscape:current-layer="svg2" />
  <!-- 외곽 원 -->
  <circle
     cx="64"
     cy="64"
     r="60"
     fill="#689f38"
     id="circle1" />
  <!-- 내부 원 -->
  <circle
     cx="64"
     cy="64"
     r="52"
     fill="#7cb342"
     id="circle2" />
  <!-- 하이라이트 -->
  <path
     d="M30 30c6-8 18-14 30-15c3-.3 6-.2 8 .5c2 1 3 3 2 5            c-1 2-3 3-5 4c-10 4-18 10-24 18c-2 3-5 10-8 8            c-4-3-3-10-3-20z"
     fill="#aed581"
     id="path2" />
  <!-- 텍스트 -->
  <!-- <path -->
     <!-- d="m 51.339844,66.517189 q -2.064453,2.542969 -5.619141,2.542969 -3.076172,0 -5.140625,-1.982422 -2.064453,-1.996094 -2.064453,-5.236328 0,-3.240235 2.050781,-5.222656 2.064453,-1.996094 5.154297,-1.996094 3.677734,0 5.769531,2.707031 h 5.427735 v -3.664062 h 3.390625 V 72.737892 H 56.917969 V 66.517189 Z M 45.720703,57.48008 q -1.736328,0 -2.775391,1.162109 -1.039062,1.148438 -1.039062,3.199219 0,2.050781 1.039062,3.21289 1.052735,1.148438 2.775391,1.148438 1.695313,0 2.748047,-1.162109 1.052734,-1.16211 1.052734,-3.199219 0,-2.03711 -1.052734,-3.199219 -1.039063,-1.162109 -2.748047,-1.162109 z m 6.945313,6.316406 h 4.251953 v -3.71875 h -4.197266 q 0.164063,0.847656 0.164063,1.763672 0,1.02539 -0.21875,1.955078 z m -9.351563,15.326172 v -8.708985 h 3.431641 v 5.824219 h 14.095703 v 2.884766 z M 79.175781,64.862892 v -2.652344 h 5.796875 v -2.40625 h -5.072265 v -2.666015 h 5.072265 v -3.472656 h 3.363281 v 13.248046 h -3.363281 v -2.050781 z m -10.923828,2.40625 -2.201172,-2.734375 q 2.597656,-0.492187 5.605469,-2.378906 3.007812,-1.886719 4.388672,-4.853516 h -8.38086 V 54.41758 H 80.324219 Q 79.09375,63.345314 68.251953,67.269142 Z m 3.021484,12.414063 V 72.478127 H 84.972656 V 70.769142 H 71.273437 v -2.830078 h 17.0625 v 7.123047 H 74.664062 v 1.791016 h 14.341797 v 2.830078 z" -->
     <!-- id="text2" -->
     <!-- style="font-weight:900;font-size:28px;font-family:'Malgun Gothic', Arial, sans-serif;dominant-baseline:middle;text-anchor:middle;stroke:#ffffff;stroke-width:2" -->
     <!-- aria-label="연결" /> -->
</svg>
